<svg width="21" height="20" viewBox="0 0 21 20" fill="none" xmlns="http://www.w3.org/2000/svg">
<g clip-path="url(#clip0_275_115)">
<path d="M6.33333 9.16666V5.83332C6.33333 4.72825 6.77232 3.66845 7.55372 2.88704C8.33512 2.10564 9.39493 1.66666 10.5 1.66666C11.6051 1.66666 12.6649 2.10564 13.4463 2.88704C14.2277 3.66845 14.6667 4.72825 14.6667 5.83332V9.16666M4.66667 9.16666H16.3333C17.2538 9.16666 18 9.91285 18 10.8333V16.6667C18 17.5871 17.2538 18.3333 16.3333 18.3333H4.66667C3.74619 18.3333 3 17.5871 3 16.6667V10.8333C3 9.91285 3.74619 9.16666 4.66667 9.16666Z" stroke="#A5BAD0" stroke-width="4" stroke-linecap="round" stroke-linejoin="round"/>
</g>
<defs>
<clipPath id="clip0_275_115">
<rect width="20" height="20" fill="white" transform="translate(0.5)"/>
</clipPath>
</defs>
</svg>
