<svg width="20" height="10" viewBox="0 0 20 10" fill="none" xmlns="http://www.w3.org/2000/svg">
<path d="M4.06203e-08 0.400396C1.67462e-05 0.322138 0.0232392 0.245631 0.0667329 0.180572C0.110227 0.115513 0.172034 0.0648157 0.244344 0.0348867C0.316653 0.00495775 0.396208 -0.00286229 0.472958 0.0124277C0.549709 0.0277178 0.620204 0.0654394 0.675524 0.120794L9.52785 8.97206C9.65278 9.09622 9.82177 9.1659 9.99791 9.1659C10.174 9.1659 10.343 9.09622 10.468 8.97206L19.3197 0.120794C19.3562 0.0830043 19.3999 0.0528539 19.4482 0.0321176C19.4964 0.0113812 19.5484 0.000471466 19.6009 1.49427e-05C19.6534 -0.000441581 19.7055 0.0095668 19.7542 0.0294611C19.8028 0.0493555 19.847 0.0787339 19.8841 0.115884C19.9213 0.153034 19.9506 0.197214 19.9705 0.24584C19.9904 0.294466 20.0004 0.346556 20 0.399092C19.9995 0.451628 19.9886 0.503557 19.9679 0.551829C19.9471 0.600102 19.917 0.643757 19.8792 0.680256L11.0274 9.53179C10.754 9.80425 10.3838 9.95724 9.99776 9.95724C9.61178 9.95724 9.24152 9.80425 8.96811 9.53179L0.115788 0.680256C0.0790532 0.643497 0.0499268 0.599865 0.030058 0.551845C0.0101892 0.503825 -2.35048e-05 0.452364 4.06203e-08 0.400396Z" fill="white"/>
</svg>
