<svg width="100" height="100" viewBox="0 0 100 100" fill="none" xmlns="http://www.w3.org/2000/svg">
<g clip-path="url(#clip0_700_170)">
<path d="M75.4297 22.6563C74.8633 22.2656 74.2383 21.9727 73.5547 21.7578C72.8906 21.543 72.168 21.4453 71.4258 21.4453H28.5742V21.4258C27.5977 21.4258 26.6406 21.6211 25.8008 21.9922C24.5117 22.5391 23.4375 23.4375 22.6562 24.5703C22.2656 25.1367 21.9727 25.7617 21.7578 26.4453C21.543 27.1094 21.4453 27.832 21.4453 28.5742V71.4258C21.4453 72.4023 21.6406 73.3594 22.0117 74.1992C22.5586 75.4883 23.457 76.5625 24.5898 77.3437C25.1562 77.7344 25.7812 78.0273 26.4648 78.2422C27.1289 78.457 27.8516 78.5547 28.5937 78.5547H71.4453C72.4219 78.5547 73.3789 78.3594 74.2188 77.9883C75.5078 77.4414 76.582 76.543 77.3633 75.4102C77.7539 74.8438 78.0469 74.2187 78.2617 73.5352C78.4766 72.8711 78.5742 72.1484 78.5742 71.4062V28.5742C78.5742 27.5977 78.3789 26.6406 78.0078 25.8008C77.4609 24.5117 76.5625 23.4375 75.4297 22.6563ZM71.4258 71.4258H28.5742V28.5742H71.4258V71.4258Z" fill="#275F99"/>
<path d="M96.4258 53.5742C98.3984 53.5742 100 51.9727 100 50C100 48.0273 98.3984 46.4258 96.4258 46.4258H92.8906V35.7227H96.4258C98.3984 35.7227 100 34.1211 100 32.1484C100 30.1758 98.3984 28.5742 96.4258 28.5742H92.8906V21.4258C92.8906 19.4727 92.5 17.5781 91.7578 15.8594C90.6641 13.3008 88.8672 11.1133 86.582 9.57031C85.4492 8.80859 84.1797 8.18359 82.832 7.77344C81.4844 7.36328 80.0586 7.12891 78.5938 7.12891H71.4258V3.57422C71.4258 1.60156 69.8242 0 67.8516 0C65.8789 0 64.2773 1.60156 64.2773 3.57422V7.12891H53.5742V3.57422C53.5742 1.60156 51.9727 0 50 0C48.0273 0 46.4258 1.60156 46.4258 3.57422V7.12891H35.7227V3.57422C35.7227 1.60156 34.1211 0 32.1484 0C30.1758 0 28.5742 1.60156 28.5742 3.57422V7.12891H21.4258V7.14844C19.4922 7.14844 17.5977 7.53906 15.8984 8.28125C13.3008 9.35547 11.1328 11.1523 9.58984 13.4375C8.80859 14.5703 8.20312 15.8398 7.79297 17.1875C7.38281 18.5352 7.14844 19.9609 7.14844 21.4258V28.5742H3.57422C1.60156 28.5742 0 30.1758 0 32.1484C0 34.1211 1.60156 35.7227 3.57422 35.7227H7.14844V46.4258H3.57422C1.60156 46.4258 0 48.0273 0 50C0 51.9727 1.60156 53.5742 3.57422 53.5742H7.14844V64.2773H3.57422C1.60156 64.2773 0 65.8789 0 67.8516C0 69.8242 1.60156 71.4258 3.57422 71.4258H7.14844V78.5742C7.14844 80.5273 7.53906 82.4219 8.28125 84.1406C9.375 86.6992 11.1719 88.8867 13.457 90.4297C14.5898 91.1914 15.8594 91.8164 17.207 92.2266C18.5547 92.6367 19.9805 92.8711 21.4453 92.8711H28.5742V96.4258C28.5742 98.3984 30.1758 100 32.1484 100C34.1211 100 35.7227 98.3984 35.7227 96.4258V92.8711H46.4258V96.4258C46.4258 98.3984 48.0273 100 50 100C51.9727 100 53.5742 98.3984 53.5742 96.4258V92.8711H64.2773V96.4258C64.2773 98.3984 65.8789 100 67.8516 100C69.8242 100 71.4258 98.3984 71.4258 96.4258V92.8711H78.5938C80.5469 92.8711 82.4414 92.4805 84.1602 91.7383C86.7188 90.6445 88.9062 88.8477 90.4492 86.5625C91.2109 85.4297 91.8359 84.1602 92.2461 82.8125C92.6562 81.4648 92.8906 80.0391 92.8906 78.5742V71.4258H96.4258C98.3984 71.4258 100 69.8242 100 67.8516C100 65.8789 98.3984 64.2773 96.4258 64.2773H92.8906V53.5742H96.4258ZM85.7031 78.6133C85.7031 79.6094 85.5078 80.5469 85.1367 81.3867C84.5898 82.6562 83.6914 83.7695 82.5391 84.5312C81.9727 84.9219 81.3477 85.2148 80.6641 85.4297C80 85.6445 79.2773 85.7422 78.5352 85.7422H68.3594C68.2031 85.7227 68.0273 85.7031 67.8516 85.7031C67.6758 85.7031 67.5195 85.7227 67.3438 85.7422H50.4883C50.332 85.7227 50.1562 85.7031 49.9805 85.7031C49.8047 85.7031 49.6484 85.7227 49.4727 85.7422H32.6172C32.4609 85.7227 32.2852 85.7031 32.1094 85.7031C31.9336 85.7031 31.7773 85.7227 31.6016 85.7422H21.3867C20.3906 85.7422 19.4531 85.5469 18.6133 85.1758C17.3438 84.6289 16.2305 83.7305 15.4687 82.5781C15.0781 82.0117 14.7852 81.3867 14.5703 80.7031C14.3555 80.0391 14.2578 79.3164 14.2578 78.5742V21.4258C14.2578 20.4297 14.4531 19.4922 14.8242 18.6523C15.3711 17.3828 16.2695 16.2695 17.4219 15.5078C17.9883 15.1172 18.6133 14.8242 19.2969 14.6094C19.9609 14.3945 20.6836 14.2969 21.4258 14.2969H78.5352C79.5312 14.2969 80.4688 14.4922 81.3086 14.8633C82.5781 15.4102 83.6914 16.3086 84.4531 17.4609C84.8438 18.0273 85.1367 18.6523 85.3516 19.3359C85.5664 20 85.6641 20.7227 85.6641 21.4648V78.6133H85.7031Z" fill="#275F99"/>
</g>
<defs>
<clipPath id="clip0_700_170">
<rect width="100" height="100" fill="white"/>
</clipPath>
</defs>
</svg>
