<svg width="41" height="41" viewBox="0 0 41 41" fill="none" xmlns="http://www.w3.org/2000/svg">
<g clip-path="url(#clip0_407_477)">
<path d="M20.25 0.5C14.7344 0.5 10.25 4.98594 10.25 10.5V16.5H8.25C6.04297 16.5 4.25 18.2945 4.25 20.5V36.5C4.25 38.707 6.04297 40.5 8.25 40.5H32.25C34.4555 40.5 36.25 38.707 36.25 36.5V20.5C36.25 18.2945 34.4555 16.5 32.25 16.5H30.25V10.5C30.25 4.98594 25.7641 0.5 20.25 0.5ZM32.25 20.5L32.2539 36.5H8.25V20.5H32.25ZM14.25 16.5V10.5C14.25 7.19375 16.9414 4.5 20.25 4.5C23.557 4.5 26.25 7.19375 26.25 10.5V16.5H14.25Z" fill="#A5BAD0"/>
</g>
<defs>
<clipPath id="clip0_407_477">
<rect width="40" height="40" fill="white" transform="translate(0.25 0.5)"/>
</clipPath>
</defs>
</svg>
