<svg width="45" height="46" viewBox="0 0 45 46" fill="none" xmlns="http://www.w3.org/2000/svg">
<path d="M21.995 27.7935C21.1153 27.7935 20.3955 28.5133 20.3955 29.393V34.1915C20.3955 35.0712 19.6757 35.791 18.796 35.791H10.7985C9.91878 35.791 9.199 35.0712 9.199 34.1915V11.7985C9.199 10.9188 9.91878 10.199 10.7985 10.199H18.796C19.6757 10.199 20.3955 10.9188 20.3955 11.7985V16.597C20.3955 17.4767 21.1153 18.1965 21.995 18.1965C22.8747 18.1965 23.5945 17.4767 23.5945 16.597V11.7985C23.5945 9.15932 21.4352 7 18.796 7H10.7985C8.15933 7 6 9.15932 6 11.7985V34.1915C6 36.8307 8.15933 38.99 10.7985 38.99H18.796C21.4352 38.99 23.5945 36.8307 23.5945 34.1915V29.393C23.5945 28.5133 22.8747 27.7935 21.995 27.7935Z" fill="#A5BAD0"/>
<path d="M37.6701 23.9549C37.6901 23.9349 37.7101 23.9149 37.7301 23.8949C37.7301 23.8949 37.7301 23.8949 37.7301 23.8749C37.7501 23.8349 37.77 23.7949 37.79 23.7549C37.81 23.695 37.85 23.655 37.87 23.595C37.89 23.535 37.91 23.495 37.93 23.435C37.95 23.395 37.97 23.3551 37.97 23.2951C38.01 23.0951 38.01 22.8752 37.97 22.6753C37.97 22.6353 37.95 22.5953 37.93 22.5353C37.91 22.4753 37.91 22.4353 37.89 22.3754C37.87 22.3154 37.83 22.2754 37.81 22.2154C37.79 22.1754 37.77 22.1354 37.7501 22.0955C37.6901 22.0155 37.6301 21.9155 37.5501 21.8555L31.1521 15.4575C30.5323 14.8377 29.5126 14.8377 28.8928 15.4575C28.273 16.0773 28.273 17.097 28.8928 17.7168L32.5517 21.3757H13.9975C13.1177 21.3757 12.3979 22.0955 12.3979 22.9752C12.3979 23.8549 13.1177 24.5747 13.9975 24.5747H32.5317L28.8728 28.2335C28.253 28.8533 28.253 29.873 28.8728 30.4928C29.1927 30.8127 29.5926 30.9527 30.0125 30.9527C30.4323 30.9527 30.8322 30.7927 31.1521 30.4928L37.5501 24.0948C37.5701 24.0748 37.6101 24.0149 37.6701 23.9549Z" fill="#A5BAD0"/>
</svg>
