<svg width="210" height="100" viewBox="0 0 210 100" fill="none" xmlns="http://www.w3.org/2000/svg">
<g clip-path="url(#clip0_700_155)">
<g clip-path="url(#clip1_700_155)">
<path d="M90 25C89.9961 38.8086 78.8086 49.9961 65 50C51.1914 49.9961 40.0039 38.8086 40 25C40.0039 11.1914 51.1914 0.00390625 65 0C78.8086 0.00390625 89.9961 11.1914 90 25C90 27.7617 87.7617 30 85 30C82.2383 30 80 27.7617 80 25C79.9844 16.7168 73.2832 10.0156 65 10C56.7168 10.0156 50.0156 16.7168 50 25C50.0156 33.2832 56.7168 39.9844 65 40C73.2832 39.9844 79.9844 33.2832 80 25C80 22.2383 82.2383 20 85 20C87.7617 20 90 22.2383 90 25Z" fill="#275F99"/>
<path d="M90 95V85C89.9844 76.7168 83.2832 70.0156 75 70H55C46.7168 70.0156 40.0156 76.7168 40 85V95C40 97.7617 37.7617 100 35 100C32.2383 100 30 97.7617 30 95V85C30.0039 71.1914 41.1914 60.0039 55 60H75C88.8086 60.0039 99.9961 71.1914 100 85V95C100 97.7617 97.7617 100 95 100C92.2383 100 90 97.7617 90 95Z" fill="#275F99"/>
<path d="M31.2402 10.4941C24.4609 12.2187 19.959 18.3379 19.9551 25.0117C19.9551 26.2402 20.1074 27.4902 20.4277 28.7461C21.7871 34.0527 25.9316 38.1973 31.2383 39.5566C33.9141 40.2422 35.5273 42.9648 34.8418 45.6406C34.1562 48.3164 31.4336 49.9297 28.7578 49.2441C19.9121 46.9785 13.0058 40.0723 10.7402 31.2265C10.209 29.1543 9.95311 27.0664 9.95506 25.0117C9.95311 13.8496 17.4648 3.70897 28.7598 0.806623C31.4355 0.121077 34.1582 1.73436 34.8437 4.41014C35.5293 7.08397 33.916 9.80858 31.2402 10.4941Z" fill="#275F99"/>
<path d="M-9.53674e-06 95V85V84.9707C0.0663967 73.623 7.76366 63.7461 18.75 60.9082C21.4238 60.2187 24.1504 61.8261 24.8418 64.5C25.5312 67.1738 23.9238 69.9004 21.25 70.5918C14.6582 72.2929 10.0391 78.2226 9.99999 85.0293V85V95C9.99999 97.7617 7.76171 100 4.99999 100C2.23827 100 -9.53674e-06 97.7617 -9.53674e-06 95Z" fill="#275F99"/>
</g>
<g clip-path="url(#clip2_700_155)">
<path d="M120 25C120.004 38.8086 131.191 49.9961 145 50C158.809 49.9961 169.996 38.8086 170 25C169.996 11.1914 158.809 0.00390625 145 0C131.191 0.00390625 120.004 11.1914 120 25C120 27.7617 122.238 30 125 30C127.762 30 130 27.7617 130 25C130.016 16.7168 136.717 10.0156 145 10C153.283 10.0156 159.984 16.7168 160 25C159.984 33.2832 153.283 39.9844 145 40C136.717 39.9844 130.016 33.2832 130 25C130 22.2383 127.762 20 125 20C122.238 20 120 22.2383 120 25Z" fill="#275F99"/>
<path d="M120 95V85C120.016 76.7168 126.717 70.0156 135 70H155C163.283 70.0156 169.984 76.7168 170 85V95C170 97.7617 172.238 100 175 100C177.762 100 180 97.7617 180 95V85C179.996 71.1914 168.809 60.0039 155 60H135C121.191 60.0039 110.004 71.1914 110 85V95C110 97.7617 112.238 100 115 100C117.762 100 120 97.7617 120 95Z" fill="#275F99"/>
<path d="M178.76 10.4941C185.539 12.2187 190.041 18.3379 190.045 25.0117C190.045 26.2402 189.893 27.4902 189.572 28.7461C188.213 34.0527 184.068 38.1973 178.762 39.5566C176.086 40.2422 174.473 42.9648 175.158 45.6406C175.844 48.3164 178.566 49.9297 181.242 49.2441C190.088 46.9785 196.994 40.0723 199.26 31.2265C199.791 29.1543 200.047 27.0664 200.045 25.0117C200.047 13.8496 192.535 3.70897 181.24 0.806623C178.564 0.121077 175.842 1.73436 175.156 4.41014C174.471 7.08397 176.084 9.80858 178.76 10.4941Z" fill="#275F99"/>
<path d="M210 95V85V84.9707C209.934 73.623 202.236 63.7461 191.25 60.9082C188.576 60.2187 185.85 61.8261 185.158 64.5C184.469 67.1738 186.076 69.9004 188.75 70.5918C195.342 72.2929 199.961 78.2226 200 85.0293V85V95C200 97.7617 202.238 100 205 100C207.762 100 210 97.7617 210 95Z" fill="#275F99"/>
</g>
</g>
<defs>
<clipPath id="clip0_700_155">
<rect width="210" height="100" fill="white"/>
</clipPath>
<clipPath id="clip1_700_155">
<rect width="100" height="100" fill="white" transform="matrix(-1 0 0 1 100 0)"/>
</clipPath>
<clipPath id="clip2_700_155">
<rect width="100" height="100" fill="white" transform="translate(110)"/>
</clipPath>
</defs>
</svg>
