<svg width="40" height="41" viewBox="0 0 40 41" fill="none" xmlns="http://www.w3.org/2000/svg">
<g clip-path="url(#clip0_395_271)">
<path d="M20 0.25L36.3633 7.52266V18.432C36.3633 28.5227 29.382 37.9594 20 40.25C10.618 37.9594 3.63671 28.5227 3.63671 18.432V7.52266L20 0.25ZM20 4.21328L7.27265 9.88594V18.8312C7.27265 21.9219 8.18203 25.068 9.72734 27.8313C12.7273 25.5945 17.7094 24.7945 20 24.7945C22.2906 24.7945 27.2727 25.5945 30.2727 27.8313C31.818 25.068 32.7273 21.9219 32.7273 18.8312V9.88594L20 4.21328ZM20 9.34062C23.5148 9.34062 26.3633 12.1898 26.3633 15.7039C26.3633 19.218 23.5141 22.0672 20 22.0672C16.4859 22.0672 13.6367 19.218 13.6367 15.7039C13.6367 12.1898 16.4852 9.34062 20 9.34062ZM20 12.9773C18.4937 12.9773 17.2727 14.1984 17.2727 15.7047C17.2727 17.2109 18.4937 18.432 20 18.432C21.5062 18.432 22.7273 17.2109 22.7273 15.7047C22.7273 14.1984 21.5062 12.9773 20 12.9773ZM20 28.432C17.1453 28.432 13.382 29.5414 11.7633 30.8688C14.018 33.6688 16.9086 35.7961 20 36.6141C23.0906 35.7961 25.982 33.6688 28.2367 30.8688C26.6 29.5406 22.8547 28.432 20 28.432Z" fill="#A5BAD0"/>
</g>
<defs>
<clipPath id="clip0_395_271">
<rect width="40" height="40" fill="white" transform="matrix(-1 0 0 1 40 0.25)"/>
</clipPath>
</defs>
</svg>
