<svg width="100" height="100" viewBox="0 0 100 100" fill="none" xmlns="http://www.w3.org/2000/svg">
<g clip-path="url(#clip0_700_147)">
<path d="M10 25C10.0039 38.8086 21.1914 49.9961 35 50C48.8086 49.9961 59.9961 38.8086 60 25C59.9961 11.1914 48.8086 0.00390625 35 0C21.1914 0.00390625 10.0039 11.1914 10 25C10 27.7617 12.2383 30 15 30C17.7617 30 20 27.7617 20 25C20.0156 16.7168 26.7168 10.0156 35 10C43.2832 10.0156 49.9844 16.7168 50 25C49.9844 33.2832 43.2832 39.9844 35 40C26.7168 39.9844 20.0156 33.2832 20 25C20 22.2383 17.7617 20 15 20C12.2383 20 10 22.2383 10 25Z" fill="#00F9EC" fill-opacity="0.5"/>
<path d="M10 95V85C10.0156 76.7168 16.7168 70.0156 25 70H45C53.2832 70.0156 59.9844 76.7168 60 85V95C60 97.7617 62.2383 100 65 100C67.7617 100 70 97.7617 70 95V85C69.9961 71.1914 58.8086 60.0039 45 60H25C11.1914 60.0039 0.00390625 71.1914 0 85V95C0 97.7617 2.23828 100 5 100C7.76172 100 10 97.7617 10 95Z" fill="#00F9EC" fill-opacity="0.5"/>
<path d="M68.7598 10.4941C75.5391 12.2187 80.041 18.3379 80.0449 25.0117C80.0449 26.2402 79.8926 27.4902 79.5723 28.7461C78.2129 34.0527 74.0684 38.1973 68.7617 39.5566C66.0859 40.2422 64.4727 42.9648 65.1582 45.6406C65.8438 48.3164 68.5664 49.9297 71.2422 49.2441C80.0879 46.9785 86.9942 40.0723 89.2598 31.2265C89.791 29.1543 90.0469 27.0664 90.0449 25.0117C90.0469 13.8496 82.5352 3.70897 71.2402 0.806623C68.5645 0.121077 65.8418 1.73436 65.1563 4.41014C64.4707 7.08397 66.084 9.80858 68.7598 10.4941Z" fill="#00F9EC" fill-opacity="0.5"/>
<path d="M100 95V85V84.9707C99.9336 73.623 92.2363 63.7461 81.25 60.9082C78.5762 60.2187 75.8496 61.8261 75.1582 64.5C74.4688 67.1738 76.0762 69.9004 78.75 70.5918C85.3418 72.2929 89.9609 78.2226 90 85.0293V85V95C90 97.7617 92.2383 100 95 100C97.7617 100 100 97.7617 100 95Z" fill="#00F9EC" fill-opacity="0.5"/>
</g>
<defs>
<clipPath id="clip0_700_147">
<rect width="100" height="100" fill="white"/>
</clipPath>
</defs>
</svg>
