<svg width="50" height="50" viewBox="0 0 50 50" fill="none" xmlns="http://www.w3.org/2000/svg">
<path d="M2 24.5001C2 27.2523 2.49509 29.8887 3.39948 32.3262L24.5 34.2827L45.6005 32.3262C46.5049 29.8887 47 27.2523 47 24.5001C47 21.7479 46.5049 19.1115 45.6005 16.6741L24.5 14.7175L3.39948 16.6741C2.49509 19.1115 2 21.7479 2 24.5001Z" fill="#FFDA44"/>
<path d="M45.6003 16.674C42.4212 8.10603 34.174 2 24.4998 2C14.8256 2 6.57838 8.10603 3.39929 16.674H45.6003Z" fill="#D80027"/>
<path d="M3.39929 32.3259C6.57838 40.8939 14.8256 46.9999 24.4998 46.9999C34.174 46.9999 42.4212 40.8939 45.6003 32.3259H3.39929Z" fill="#D80027"/>
</svg>
