<svg width="40" height="41" viewBox="0 0 40 41" fill="none" xmlns="http://www.w3.org/2000/svg">
<path fill-rule="evenodd" clip-rule="evenodd" d="M26.8123 12.3509C26.8123 16.1 23.7624 19.1392 20 19.1392C16.2376 19.1392 13.1876 16.1 13.1876 12.3509C13.1876 8.60176 16.2376 5.5625 20 5.5625C23.7624 5.5625 26.8123 8.60176 26.8123 12.3509ZM24.5416 12.3509C24.5416 14.8503 22.5082 16.8765 20 16.8765C17.4918 16.8765 15.4584 14.8503 15.4584 12.3509C15.4584 9.85146 17.4918 7.82529 20 7.82529C22.5082 7.82529 24.5416 9.85146 24.5416 12.3509Z" fill="#A5BAD0"/>
<path d="M20 22.5334C12.649 22.5334 6.38582 26.8649 4 32.9333C4.5812 33.5084 5.19345 34.0523 5.83403 34.5625C7.61063 28.9911 13.1839 24.7962 20 24.7962C26.8161 24.7962 32.3894 28.9911 34.166 34.5625C34.8065 34.0524 35.4188 33.5084 36 32.9333C33.6142 26.8649 27.351 22.5334 20 22.5334Z" fill="#A5BAD0"/>
</svg>
